<svg width="226" height="48" viewBox="0 0 226 48" fill="none" xmlns="http://www.w3.org/2000/svg">
<g clip-path="url(#clip0_170_1589)">
<path d="M157.725 31.7759V16.1564H163.225C166.195 16.1564 168.02 17.6516 168.02 20.1154C168.02 21.9849 167.206 23.2177 165.534 23.8764C167.426 24.5148 168.373 25.7899 168.373 27.7254C168.373 30.1672 166.481 31.7725 163.621 31.7725H157.725V31.7759ZM158.781 17.125V23.4598H163.533C165.689 23.4598 166.943 22.2508 166.943 20.2035C166.943 18.268 165.602 17.1233 163.292 17.1233H158.783L158.781 17.125ZM158.781 24.4284V30.8073H163.687C165.953 30.8073 167.296 29.5983 167.296 27.595C167.296 25.5918 165.932 24.4267 163.687 24.4267H158.781V24.4284Z" fill="#1F1811"/>
<path d="M180.983 21.2178V31.7776H180.168L179.97 29.8201C179.398 31.1392 177.903 32.0418 176.143 32.0418C173.613 32.0418 172.316 30.3044 172.316 27.7305V21.1975H173.351V27.4663C173.351 30.1723 174.626 31.1172 176.387 31.1172C178.609 31.1172 179.974 29.578 179.974 26.8499V21.2178H180.986H180.983Z" fill="#1F1811"/>
<path d="M190.779 21.9425H189.987C188.029 21.9425 186.752 23.3717 186.752 25.3529V31.7759H185.74V21.2161H186.686L186.774 22.9094C187.193 21.7207 188.358 20.9519 189.855 20.9519C190.185 20.9519 190.427 20.9739 190.779 21.062V21.9425Z" fill="#1F1811"/>
<path d="M198.265 20.9536C200.223 20.9536 201.698 21.9222 202.401 23.6816L202.533 21.2178H203.347V31.5574C203.347 34.5056 201.39 36.4851 198.442 36.4851C195.89 36.4851 194.064 35.0559 193.624 32.6361H194.615C195.011 34.4836 196.44 35.5622 198.464 35.5622C200.795 35.5622 202.357 33.9569 202.357 31.5591V28.699C201.63 30.3924 200.069 31.383 198.155 31.383C195.119 31.383 193.338 28.9632 193.338 26.1692C193.338 23.3751 195.141 20.9553 198.265 20.9553V20.9536ZM198.221 30.4568C200.729 30.4568 202.18 28.6313 202.18 26.1455C202.18 23.6596 200.795 21.8782 198.265 21.8782C195.736 21.8782 194.372 23.8577 194.372 26.1675C194.372 28.4772 195.78 30.4568 198.221 30.4568Z" fill="#1F1811"/>
<path d="M207.313 26.5197C207.313 23.2193 209.315 20.9536 212.263 20.9536C215.013 20.9536 216.904 22.9332 216.904 25.8153V26.5197H208.326C208.414 29.4018 209.909 31.1172 212.395 31.1172C214.264 31.1172 215.453 30.3027 215.871 28.7414H216.906C216.29 30.919 214.772 32.0417 212.397 32.0417C209.338 32.0417 207.315 29.8421 207.315 26.5197H207.313ZM208.348 25.6832H215.871C215.871 23.3954 214.442 21.8782 212.263 21.8782C210.083 21.8782 208.588 23.3734 208.348 25.6832Z" fill="#1F1811"/>
<path d="M225.908 21.9425H225.115C223.158 21.9425 221.881 23.3717 221.881 25.3529V31.7759H220.868V21.2161H221.815L221.903 22.9094C222.321 21.7207 223.486 20.9519 224.983 20.9519C225.313 20.9519 225.556 20.9739 225.908 21.062V21.9425Z" fill="#1F1811"/>
<path d="M24.6841 21.1078L30.8971 40.954L25.3902 46.835C25.182 47.0568 24.955 47.2516 24.7095 47.4057L24.6858 21.1078H24.6841Z" fill="#1F1811"/>
<path d="M44.4067 26.5214L32.6328 39.0996L26.9244 21.1009L33.0883 13.4639L30.2959 13.4452L24.7163 20.5099V3.98103L22.5928 6.25183V47.9999C21.6479 47.9762 20.7149 47.5834 20.0138 46.8332L0.993999 26.5163C-0.331903 25.104 -0.331903 22.901 0.993999 21.4819L17.5805 3.76598V25.7543C17.5805 28.7922 17.1266 31.6844 14.1006 32.5921V26.9633H11.9771V35.0779L13.1557 34.9374C19.7056 34.1889 19.7056 27.8405 19.7056 25.7543V1.49518L20.0121 1.17006C21.4667 -0.38953 23.934 -0.38953 25.3902 1.17006L44.4084 21.4887C45.7343 22.901 45.7343 25.104 44.4084 26.5231" fill="#1F1811"/>
<path d="M149.134 14.7831H148.447V33.2187H149.134V14.7831Z" fill="#1F1811"/>
<path d="M65.0674 16.1581C67.6752 16.1581 69.4058 17.611 69.7038 20.0477H68.6353C68.4219 18.1664 67.1401 17.0979 65.0674 17.0979C62.717 17.0979 61.1574 18.3374 61.1574 20.2391C61.1574 21.692 62.0329 22.6538 63.7652 23.1026L66.4576 23.7867C68.7437 24.3641 69.9629 25.7306 69.9629 27.6763C69.9629 30.2197 67.9969 31.8437 64.9624 31.8437C62.1209 31.8437 60.1973 30.3688 59.9619 27.9964H61.0524C61.1371 29.727 62.6984 30.8819 64.9624 30.8819C67.3771 30.8819 68.9367 29.6423 68.9367 27.6983C68.9367 26.2031 68.0612 25.1972 66.2646 24.7485L63.6365 24.0864C61.3505 23.509 60.1312 22.2051 60.1312 20.2391C60.1312 17.76 62.0752 16.1581 65.0674 16.1581Z" fill="#1F1811"/>
<path d="M73.1176 16.4137H83.674V17.3535H78.9089V31.5862H77.8827V17.3535H73.1176V16.4137Z" fill="#1F1811"/>
<path d="M87.2673 16.4137H88.2935V26.4147C88.2935 29.2782 89.8531 30.8377 92.7166 30.8377C95.5801 30.8377 97.0753 29.2561 97.0753 26.4147V16.4137H98.1015V26.4367C98.1015 29.8133 96.0931 31.8436 92.7166 31.8436C89.34 31.8436 87.2673 29.8353 87.2673 26.4367V16.4137Z" fill="#1F1811"/>
<path d="M103.385 31.5862V16.4137H107.637C112.231 16.4137 115.287 19.4482 115.287 24C115.287 28.5517 112.231 31.5862 107.637 31.5862H103.385ZM104.411 17.3535V30.6447H107.638C111.635 30.6447 114.241 28.0369 114.241 23.9983C114.241 19.9596 111.677 17.3518 107.638 17.3518H104.411V17.3535Z" fill="#1F1811"/>
<path d="M120.936 31.5862H119.91V16.4137H120.936V31.5862Z" fill="#1F1811"/>
<path d="M132.668 31.8437C128.458 31.8437 125.509 28.5958 125.509 24.0017C125.509 19.4077 128.479 16.1598 132.668 16.1598C136.857 16.1598 139.848 19.4077 139.848 24.0017C139.848 28.5958 136.878 31.8437 132.668 31.8437ZM132.668 17.1419C129.078 17.1419 126.557 19.9631 126.557 24.0017C126.557 28.0404 129.078 30.8615 132.668 30.8615C136.258 30.8615 138.801 28.0404 138.801 24.0017C138.801 19.9631 136.28 17.1419 132.668 17.1419Z" fill="#1F1811"/>
</g>
<defs>
<clipPath id="clip0_170_1589">
<rect width="225.908" height="48" fill="white"/>
</clipPath>
</defs>
</svg>
